<mxfile host="app.diagrams.net" modified="2024-07-03T22:02:04.342Z" agent="Mozilla/5.0 (Windows NT 10.0; Win64; x64) AppleWebKit/537.36 (KHTML, like Gecko) Chrome/126.0.0.0 Safari/537.36" version="24.5.3" etag="UN7fdft-Nzdgt30hvyJC" type="github">
  <diagram name="Страница — 1" id="18S6oHDZqfU5DTjqrQAe">
    <mxGraphModel>
      <root>
        <mxCell id="0" />
        <mxCell id="1" parent="0" />
      </root>
    </mxGraphModel>
  </diagram>
</mxfile>
